<svg xmlns="http://www.w3.org/2000/svg" viewBox="0 0 256 256" role="img" aria-labelledby="title desc">
  <title id="title">Woodworking Favicon</title>
  <desc id="desc">Circular saw blade with woodgrain center.</desc>

  <defs>
    <linearGradient id="woodFill" x1="0" y1="0" x2="1" y2="1">
      <stop offset="0%" stop-color="#9a6a3a" />
      <stop offset="100%" stop-color="#7a4f28" />
    </linearGradient>
    <g id="tooth">
      <path d="M128 10 L120 30 L136 30 Z" fill="#0f1114" />
    </g>
  </defs>

  <g>
    <use href="#tooth" />
    <use href="#tooth" transform="rotate(15 128 128)" />
    <use href="#tooth" transform="rotate(30 128 128)" />
    <use href="#tooth" transform="rotate(45 128 128)" />
    <use href="#tooth" transform="rotate(60 128 128)" />
    <use href="#tooth" transform="rotate(75 128 128)" />
    <use href="#tooth" transform="rotate(90 128 128)" />
    <use href="#tooth" transform="rotate(105 128 128)" />
    <use href="#tooth" transform="rotate(120 128 128)" />
    <use href="#tooth" transform="rotate(135 128 128)" />
    <use href="#tooth" transform="rotate(150 128 128)" />
    <use href="#tooth" transform="rotate(165 128 128)" />
    <use href="#tooth" transform="rotate(180 128 128)" />
    <use href="#tooth" transform="rotate(195 128 128)" />
    <use href="#tooth" transform="rotate(210 128 128)" />
    <use href="#tooth" transform="rotate(225 128 128)" />
    <use href="#tooth" transform="rotate(240 128 128)" />
    <use href="#tooth" transform="rotate(255 128 128)" />
    <use href="#tooth" transform="rotate(270 128 128)" />
    <use href="#tooth" transform="rotate(285 128 128)" />
    <use href="#tooth" transform="rotate(300 128 128)" />
    <use href="#tooth" transform="rotate(315 128 128)" />
    <use href="#tooth" transform="rotate(330 128 128)" />
    <use href="#tooth" transform="rotate(345 128 128)" />
  </g>

  <circle cx="128" cy="128" r="108" fill="#0f1114" />
  <circle cx="128" cy="128" r="84" fill="url(#woodFill)" stroke="#f6efe7" stroke-width="5" />

  <g fill="none" stroke="#f6efe7" stroke-width="3" stroke-linecap="round" opacity="0.95">
    <circle cx="128" cy="128" r="14" />
    <circle cx="128" cy="128" r="34" />
    <circle cx="128" cy="128" r="52" />
    <circle cx="128" cy="128" r="68" />
    <path d="M128 46 A82 82 0 0 1 195 82" />
    <path d="M64 92 A58 58 0 0 0 150 174" />
    <path d="M75 148 A42 42 0 0 0 132 184" />
    <path d="M78 78 L178 178" />
    <path d="M128 46 L128 80" />
  </g>
</svg>
